<svg xmlns="http://www.w3.org/2000/svg" width="23" height="22" viewBox="0 0 23 22">
    <path fill="#252525" fill-rule="evenodd" d="M19.81 0H3.04C1.594 0 .423 1.168.423 2.61v16.78C.424 20.833 1.595 22 3.04 22h16.77c1.445 0 2.615-1.168 2.615-2.61V2.61c0-1.442-1.17-2.61-2.615-2.61zm-3.573 3.437c0-.38.308-.687.687-.687h2.063c.38 0 .687.308.687.687V5.5c0 .38-.307.687-.687.687h-2.063c-.379 0-.687-.308-.687-.687V3.437zM11.45 6.805c2.337 0 4.23 1.89 4.23 4.22 0 2.332-1.893 4.221-4.23 4.221-2.336 0-4.23-1.89-4.23-4.22 0-2.331 1.894-4.221 4.23-4.221zm8.912 12.445c0 .38-.308.688-.688.688h-16.5c-.38 0-.687-.309-.687-.688V8.937h2.75c-.358.516-.48 1.478-.48 2.089 0 3.68 3.003 6.676 6.693 6.676 3.69 0 6.693-2.995 6.693-6.676 0-.611-.087-1.558-.531-2.089h2.75V19.25z"/>
</svg>
