<svg xmlns="http://www.w3.org/2000/svg" width="18" height="18" viewBox="0 0 18 18">
    <path fill="#252525" fill-rule="evenodd" d="M15.963.125H2.92c-1.124 0-2.034.908-2.034 2.03v13.052c0 1.12.91 2.03 2.034 2.03h13.043c1.123 0 2.034-.91 2.034-2.03V2.155c0-1.122-.91-2.03-2.034-2.03zM13.184 2.8c0-.295.24-.535.535-.535h1.604c.295 0 .535.24.535.535v1.604c0 .295-.24.535-.535.535h-1.604c-.295 0-.535-.24-.535-.535V2.8zM9.461 5.418c1.817 0 3.29 1.47 3.29 3.283s-1.473 3.283-3.29 3.283-3.29-1.47-3.29-3.283 1.473-3.283 3.29-3.283zm6.932 9.68c0 .294-.24.534-.535.534H3.025c-.296 0-.535-.24-.535-.535v-8.02h2.139c-.279.4-.373 1.149-.373 1.624 0 2.863 2.335 5.193 5.205 5.193s5.206-2.33 5.206-5.193c0-.475-.068-1.212-.413-1.625h2.139v8.021z"/>
</svg>
