<svg xmlns="http://www.w3.org/2000/svg" width="19" height="18" viewBox="0 0 19 18">
    <g fill="#252525" fill-rule="evenodd">
        <path d="M1.055 17.08h3.209c.153 0 .278-.124.278-.278V6.032c0-.153-.125-.278-.278-.278H1.055c-.153 0-.278.125-.278.278v10.77c0 .154.125.278.278.278m17.064-6.495v6.217c0 .154-.124.278-.278.278h-3.21c-.153 0-.277-.124-.277-.278V11.02c0-1.521-.544-2.56-1.908-2.56-1.04 0-1.658.699-1.931 1.376-.1.243-.125.579-.125.918v6.048c0 .154-.125.278-.278.278H6.904c-.154 0-.28-.124-.278-.278.006-1.54.039-9.01.006-10.767-.003-.155.123-.281.278-.281h3.202c.154 0 .279.125.279.278v1.327c-.008.013-.019.025-.025.037h.025v-.037c.5-.77 1.392-1.87 3.393-1.87 2.478 0 4.335 1.618 4.335 5.096M2.547 4.313c-1.113 0-2.016-.902-2.016-2.016 0-1.113.903-2.015 2.016-2.015s2.016.902 2.016 2.015c0 1.114-.903 2.016-2.016 2.016z" transform="translate(.361 .544)"/>
    </g>
</svg>
