<svg xmlns="http://www.w3.org/2000/svg" width="24" height="22" viewBox="0 0 24 22">
    <g fill="#252525" fill-rule="evenodd">
        <path d="M1.357 21.96h4.125c.197 0 .357-.16.357-.357V7.755c0-.197-.16-.357-.357-.357H1.357c-.197 0-.358.16-.358.357v13.848c0 .197.16.357.358.357m21.94-8.351v7.994c0 .197-.16.357-.358.357h-4.127c-.197 0-.357-.16-.357-.357v-7.434c0-1.956-.7-3.293-2.452-3.293-1.339 0-2.133.9-2.484 1.77-.127.312-.16.745-.16 1.18v7.776c0 .198-.16.358-.358.358H8.876c-.198 0-.359-.16-.357-.358.008-1.98.05-11.585.008-13.843-.004-.2.157-.361.358-.361H13c.198 0 .358.16.358.357v1.706c-.01.017-.023.032-.032.048h.032v-.048c.643-.99 1.791-2.405 4.363-2.405 3.187 0 5.574 2.081 5.574 6.553M3.275 5.546c-1.432 0-2.592-1.16-2.592-2.592 0-1.432 1.16-2.591 2.592-2.591 1.43 0 2.591 1.16 2.591 2.59 0 1.432-1.16 2.593-2.591 2.593z" transform="translate(-.25 -.3)"/>
    </g>
</svg>
