<svg xmlns="http://www.w3.org/2000/svg" width="21" height="20" viewBox="0 0 21 20">
    <g fill="#252525" fill-rule="evenodd">
        <path d="M1.206 19.52h3.667c.175 0 .318-.142.318-.317V6.893c0-.175-.143-.317-.318-.317H1.206c-.175 0-.318.142-.318.318v12.309c0 .175.143.317.318.317m19.502-7.423v7.106c0 .175-.143.317-.318.317h-3.668c-.175 0-.318-.142-.318-.317v-6.608c0-1.74-.621-2.927-2.18-2.927-1.189 0-1.895.8-2.207 1.573-.113.278-.143.662-.143 1.05v6.91c0 .177-.142.319-.317.319H7.89c-.176 0-.32-.142-.318-.318.008-1.76.045-10.298.008-12.305-.004-.177.14-.321.318-.321h3.659c.176 0 .318.142.318.318V8.41l-.029.043h.029V8.41c.571-.88 1.592-2.138 3.878-2.138 2.832 0 4.955 1.85 4.955 5.825M2.911 4.93C1.64 4.93.607 3.898.607 2.626.607 1.353 1.639.322 2.911.322c1.272 0 2.303 1.031 2.303 2.304 0 1.272-1.031 2.304-2.303 2.304z"/>
    </g>
</svg>
