<?xml version="1.0" encoding="utf-8"?>
<!-- Generator: Adobe Illustrator 19.0.0, SVG Export Plug-In . SVG Version: 6.00 Build 0)  -->
<svg version="1.1" id="Layer_1" xmlns="http://www.w3.org/2000/svg" xmlns:xlink="http://www.w3.org/1999/xlink" x="0px" y="0px"
	 viewBox="-107.3 293 268.1 282" style="enable-background:new -107.3 293 268.1 282;" xml:space="preserve">
<style type="text/css">
	.st0{fill:#0337CC;}
</style>
<path class="st0" d="M158.9,356.9c-23.6-19.9-52.3-35.4-86-46.7c-32.7-11-66.8-16.7-102.1-17.2l-2.9,0l-2.9,0
	c-24.7,0.3-48.8,3.3-72.3,8.7v67.4c1.9-0.8,3.8-1.5,5.6-2.1c21.7-7.3,44.2-11,67.6-11.4l2,0l2,0l2.5,0c22.5,0.6,44.2,4.3,65.1,11.3
	c22.3,7.5,41.3,17.8,56.9,30.9c4.2,45.6-2.1,86.8-19,123.7c-9,19.8-23.6,37.5-43.5,53.3h80.2c7.1-10,13.2-20.5,18.2-31.3
	C155.7,488,165.3,425.7,158.9,356.9z"/>
<path class="st0" d="M-99.3,575h41.4l0.4-38.9h26.7l1.4,0c47.6-0.5,82.1-24.6,82.1-70l0-1.8c-0.6-42.3-32.1-67-80.8-67h-79.2V567
	C-107.3,571.4-103.7,575-99.3,575z M-58.8,449.5h22.8h0l0.8,0c17.1,0.2,27.3,8.4,27.3,23.5l0,1.2c-0.3,13.7-10.8,22.6-27.9,22.6
	h-23.1V449.5z"/>
</svg>
