<svg xmlns="http://www.w3.org/2000/svg" xmlns:xlink="http://www.w3.org/1999/xlink" width="221" height="245" viewBox="0 0 221 245">
    <defs>
        <path id="prefix__a" d="M0 0H221V245H0z"/>
    </defs>
    <g fill="none" fill-rule="evenodd">
        <mask id="prefix__b" fill="#fff">
            <use xlink:href="#prefix__a"/>
        </mask>
        <path fill="#0337CC" fill-rule="nonzero" d="M62 0l2.429.024c29.116.408 57.168 5.127 84.155 14.154 27.737 9.279 51.35 22.107 70.842 38.484 5.247 56.714-2.624 108.026-23.614 153.937-20.78 45.451-64.704 82.3-131.773 110.548L62 318c-24.988-10.387-46.807-21.951-65.458-34.693l.002-62.093.06.06.001-135.394H65.27c40.107 0 66.08 20.414 66.596 55.245l.008 1.517c0 37.388-28.49 57.278-67.701 57.672l-1.192.006H41.008l-.499 52c6.267 3.255 12.919 6.367 19.957 9.337l1.534.642 1.351-.565c44.427-18.711 73.523-43.121 87.289-73.23 13.904-30.411 19.118-64.402 15.642-101.97-12.911-10.848-28.553-19.346-46.927-25.492-17.238-5.767-35.132-8.879-53.682-9.336l-2.064-.04L62 51.65l-1.609.016c-19.287.27-37.87 3.395-55.746 9.376-12.25 4.097-27.62 12.595-46.116 25.492V251.18c-12.951-13.806-23.065-28.666-30.34-44.58-20.991-45.911-28.862-97.223-23.615-153.937 19.491-16.377 43.105-29.205 70.842-38.484C2.403 5.151 30.455.432 59.57.024L62 0zm-3.172 129H40v39h19.034c14.053 0 22.693-7.354 22.96-18.643l.006-.962c0-12.454-8.424-19.186-22.508-19.39l-.664-.005z" mask="url(#prefix__b)"/>
    </g>
</svg>
