<?xml version="1.0" encoding="utf-8"?>
<!-- Generator: Adobe Illustrator 19.0.0, SVG Export Plug-In . SVG Version: 6.00 Build 0)  -->
<svg version="1.1" id="Layer_1" xmlns="http://www.w3.org/2000/svg" xmlns:xlink="http://www.w3.org/1999/xlink" x="0px" y="0px"
	 viewBox="-145 314 199 166" style="enable-background:new -145 314 199 166;" xml:space="preserve">
<style type="text/css">
	.st0{filter:url(#Adobe_OpacityMaskFilter);}
	.st1{fill:#FFFFFF;}
	.st2{mask:url(#_x35_cweyih2bb_2_);fill:#0337CC;}
	.st3{filter:url(#Adobe_OpacityMaskFilter_1_);}
	.st4{mask:url(#_x35_cweyih2bb_1_);fill:#0337CC;}
</style>
<defs>
	<filter id="Adobe_OpacityMaskFilter" filterUnits="userSpaceOnUse" x="-145" y="314" width="199" height="166">
		<feColorMatrix  type="matrix" values="1 0 0 0 0  0 1 0 0 0  0 0 1 0 0  0 0 0 1 0"/>
	</filter>
</defs>
<mask maskUnits="userSpaceOnUse" x="-145" y="314" width="199" height="166" id="_x35_cweyih2bb_2_">
	<g class="st0">
		<path id="z174gswlya_3_" class="st1" d="M-136,314h302c5,0,9,4,9,9v157h-320V323C-145,318-141,314-136,314z"/>
	</g>
</mask>
<path class="st2" d="M52.8,339.9C40.2,329.3,25.3,320.7,8.1,314H-136c-5,0-9,4-9,9v157h0.1V365.6c14-9.8,25.7-16.2,34.9-19.3
	c13.5-4.5,27.6-6.9,42.2-7.1l1.2,0l1.2,0l1.6,0c14.1,0.3,27.6,2.7,40.7,7.1c13.9,4.7,25.8,11.1,35.6,19.3
	c2.6,28.5-1.3,54.2-11.9,77.3c-6.4,14-17.2,26.4-32.4,37.1h52.4c5.7-7.4,10.5-15.2,14.2-23.4C50.8,421.8,56.8,382.9,52.8,339.9z"/>
<defs>
	<filter id="Adobe_OpacityMaskFilter_1_" filterUnits="userSpaceOnUse" x="-116.1" y="365.1" width="102.6" height="114.9">
		<feColorMatrix  type="matrix" values="1 0 0 0 0  0 1 0 0 0  0 0 1 0 0  0 0 0 1 0"/>
	</filter>
</defs>
<mask maskUnits="userSpaceOnUse" x="-116.1" y="365.1" width="102.6" height="114.9" id="_x35_cweyih2bb_1_">
	<g class="st3">
		<path id="z174gswlya_2_" class="st1" d="M-136,314h302c5,0,9,4,9,9v157h-320V323C-145,318-141,314-136,314z"/>
	</g>
</mask>
<path class="st4" d="M-82.4,451.8h16.7l0.9,0c29.7-0.3,51.3-15.4,51.3-43.7l0-1.2c-0.4-26.4-20.1-41.9-50.5-41.9h-52l0,102.6l0,0
	l0,12.4h33.4L-82.4,451.8z M-83.2,397.8h14.3l0.5,0c10.7,0.2,17.1,5.3,17.1,14.7l0,0.7c-0.2,8.6-6.8,14.1-17.4,14.1h-14.4V397.8z"/>
</svg>
