<svg xmlns="http://www.w3.org/2000/svg" xmlns:xlink="http://www.w3.org/1999/xlink" width="152" height="174" viewBox="0 0 152 174">
    <defs>
        <path id="prefix__a" d="M0 .222h177v231H8c-4.418 0-8-3.582-8-8v-223z"/>
    </defs>
    <g fill="none" fill-rule="evenodd" transform="translate(0 -58)">
        <mask id="prefix__b" fill="#fff">
            <use xlink:href="#prefix__a"/>
        </mask>
        <path fill="#0337CC" fill-rule="nonzero" d="M43 58l1.665.016c19.96.28 39.19 3.515 57.691 9.704 19.015 6.36 35.203 15.155 48.565 26.382 3.597 38.879-1.799 74.055-16.188 105.529-14.246 31.158-44.357 56.42-90.335 75.784L43 276c-17.13-7.12-32.088-15.048-44.874-23.783l.002-42.567.04.04.002-92.816H45.24c27.494 0 45.3 13.994 45.654 37.872l.005 1.04c0 25.63-19.53 39.266-46.411 39.536l-.817.004H28.609l-.342 35.647c4.296 2.232 8.857 4.366 13.681 6.402l1.052.44.926-.387c30.457-12.827 50.403-29.561 59.84-50.201 9.531-20.849 13.106-44.15 10.723-69.905-8.851-7.437-19.574-13.262-32.17-17.476-11.818-3.953-24.085-6.086-36.801-6.4l-1.415-.027L43 93.408l-1.103.01c-13.222.186-25.96 2.329-38.216 6.428-8.397 2.81-18.935 8.635-31.614 17.476v112.87c-8.878-9.464-15.812-19.651-20.8-30.561-14.39-31.474-19.785-66.65-16.188-105.53 13.362-11.226 29.55-20.02 48.565-26.381 18.5-6.19 37.73-9.424 57.691-9.704L43 58zm-1.448 89H29v26h12.69c9.368 0 15.128-4.903 15.306-12.429l.004-.641c0-8.303-5.616-12.79-15.005-12.927l-.443-.003z" mask="url(#prefix__b)"/>
    </g>
</svg>
