<svg xmlns="http://www.w3.org/2000/svg" width="22" height="18" viewBox="0 0 22 18">
    <path fill="#252525" fill-rule="evenodd" d="M18.525 1.434C17.704.55 16.53 0 15.23 0c-2.49 0-4.512 2.035-4.512 4.544 0 .356.039.702.116 1.035-3.75-.19-7.076-1.997-9.304-4.75-.389.674-.61 1.455-.61 2.288 0 1.575.796 2.966 2.008 3.781-.74-.022-1.436-.228-2.046-.566v.055c0 2.203 1.556 4.04 3.622 4.456-.378.107-.777.16-1.19.16-.29 0-.574-.027-.848-.08.574 1.804 2.24 3.118 4.215 3.154-1.544 1.219-3.491 1.945-5.605 1.945-.364 0-.725-.02-1.077-.062C1.997 17.247 4.37 18 6.919 18c8.303 0 12.842-6.923 12.842-12.928 0-.198-.004-.395-.011-.59.881-.64 1.647-1.44 2.25-2.351-.808.361-1.679.606-2.592.715.933-.562 1.648-1.452 1.985-2.513-.873.52-1.837.898-2.868 1.1z"/>
</svg>
