<svg xmlns="http://www.w3.org/2000/svg" width="25" height="21" viewBox="0 0 25 21">
    <path fill="#252525" fill-rule="evenodd" d="M20.882 1.86C19.976.88 18.68.269 17.246.269c-2.75 0-4.98 2.26-4.98 5.048 0 .396.042.78.128 1.15-4.141-.21-7.812-2.218-10.27-5.277-.43.748-.675 1.617-.675 2.541 0 1.751.88 3.297 2.217 4.202-.816-.024-1.586-.254-2.259-.63v.062c0 2.448 1.718 4.49 4 4.951-.418.119-.86.178-1.314.178-.32 0-.634-.03-.938-.09.635 2.006 2.474 3.466 4.654 3.505-1.704 1.355-3.854 2.162-6.188 2.162-.402 0-.8-.023-1.188-.069 2.204 1.43 4.825 2.267 7.638 2.267 9.165 0 14.176-7.693 14.176-14.365 0-.22-.004-.44-.013-.655.974-.711 1.82-1.6 2.484-2.613-.892.401-1.853.673-2.86.795 1.029-.624 1.818-1.614 2.19-2.793-.963.578-2.028.999-3.166 1.224z"/>
</svg>
