<svg xmlns="http://www.w3.org/2000/svg" width="19" height="17" viewBox="0 0 19 17">
    <path fill="#252525" fill-rule="evenodd" d="M16.02 1.78C15.315 1.018 14.307.541 13.19.541c-2.138 0-3.874 1.759-3.874 3.927 0 .308.034.607.1.894-3.22-.164-6.075-1.725-7.988-4.104-.334.582-.524 1.258-.524 1.977 0 1.361.684 2.564 1.724 3.268-.634-.02-1.233-.198-1.757-.49v.048c0 1.904 1.336 3.491 3.11 3.85-.324.093-.667.14-1.02.14-.25 0-.494-.025-.73-.07.493 1.56 1.924 2.695 3.62 2.725-1.326 1.054-2.998 1.682-4.813 1.682-.313 0-.622-.018-.925-.054 1.715 1.113 3.753 1.763 5.94 1.763 7.13 0 11.027-5.983 11.027-11.173 0-.17-.003-.341-.01-.509.757-.553 1.415-1.245 1.932-2.032-.694.312-1.441.523-2.225.618.8-.485 1.415-1.255 1.704-2.172-.75.45-1.577.776-2.462.951z"/>
</svg>
