<svg xmlns="http://www.w3.org/2000/svg" xmlns:xlink="http://www.w3.org/1999/xlink" width="1440" height="765" viewBox="0 0 1440 765">
    <defs>
        <linearGradient id="prefix__c" x1="50%" x2="50%" y1="27.102%" y2="110.845%">
            <stop offset="0%" stop-color="#FFF"/>
            <stop offset="100%" stop-color="#FFF" stop-opacity="0"/>
        </linearGradient>
        <path id="prefix__a" d="M0 0H1440V765H0z"/>
    </defs>
    <g fill="none" fill-rule="evenodd">
        <mask id="prefix__b" fill="#fff">
            <use xlink:href="#prefix__a"/>
        </mask>
        <g mask="url(#prefix__b)">
            <g>
                <path fill-rule="nonzero" stroke="#0337CC" d="M819 332.056l12.51.123c149.977 2.104 294.47 26.407 433.48 72.908 142.871 47.794 264.505 113.87 364.901 198.23 27.03 292.127-13.515 556.433-121.634 792.917-107.037 234.12-333.288 423.928-678.752 569.426L819 1970.056c-128.71-53.502-241.1-113.07-337.17-178.704l.01-319.836.306.306.01-697.402h353.683c206.586 0 340.377 105.149 343.032 284.56l.04 7.818c0 192.58-146.746 295.033-348.724 297.062l-6.138.031H710.871l-2.57 267.846c32.28 16.77 66.545 32.803 102.795 48.098l7.904 3.31 6.959-2.912c228.842-96.38 378.715-222.114 449.62-377.2 71.62-156.651 98.477-331.733 80.572-525.244-66.505-55.881-147.077-99.652-241.718-131.311-88.794-29.704-180.966-45.734-276.515-48.09l-10.63-.206L819 598.1l-8.287.082c-99.348 1.394-195.063 17.492-287.146 48.296-63.094 21.106-142.273 64.877-237.539 131.311l-.002 848.075c-66.71-71.111-118.805-147.654-156.283-229.63C21.623 1159.75-18.921 895.444 8.109 603.317c100.396-84.36 222.03-150.436 364.9-198.23 139.01-46.501 283.504-70.804 433.48-72.908l12.511-.123zm-.845 634.532H710.87v218.104h108.462c80.076 0 129.308-41.126 130.827-104.26l.036-5.382c0-69.648-48.004-107.294-128.256-108.436l-3.785-.026z" opacity=".762" transform="translate(-141 -1)"/>
                <path fill="#FFF" fill-rule="nonzero" stroke="#0337CC" d="M1426.5 97.611l3.223.032c38.639.542 75.865 6.803 111.678 18.783 36.808 12.314 68.145 29.337 94.01 51.07 6.964 75.262-3.482 143.355-31.337 204.28-27.576 60.317-85.865 109.218-174.868 146.703l-2.706 1.132c-33.16-13.784-62.115-29.13-86.866-46.04l.003-82.4.079.08.002-179.673h91.12c53.223 0 87.692 27.09 88.376 73.312l.01 2.014c0 49.614-37.806 76.01-89.842 76.532l-1.581.008h-29.158l-.662 69.006c8.316 4.32 17.144 8.45 26.483 12.391l2.036.853 1.793-.75c58.957-24.831 97.569-57.224 115.836-97.179 18.451-40.358 25.37-85.464 20.758-135.319-17.134-14.397-37.892-25.673-62.274-33.83-22.876-7.652-46.623-11.782-71.24-12.39l-2.738-.052-2.135-.021-2.135.02c-25.595.36-50.254 4.507-73.978 12.443-16.255 5.438-36.654 16.714-61.197 33.83v218.49c-17.187-18.32-30.609-38.04-40.264-59.16-27.855-60.925-38.3-129.018-31.337-204.28 25.865-21.733 57.202-38.756 94.01-51.07 35.813-11.98 73.04-18.241 111.678-18.783l3.223-.032zm-.218 163.475h-27.64v56.19h27.944c20.63 0 33.314-10.594 33.705-26.86l.01-1.386c0-17.944-12.368-27.643-33.044-27.937l-.975-.007z" transform="translate(-141 -1)"/>
                <path fill="url(#prefix__c)" d="M141 0H1581.5V387H141z" transform="translate(-141 -1)"/>
            </g>
        </g>
    </g>
</svg>
