<svg xmlns="http://www.w3.org/2000/svg" xmlns:xlink="http://www.w3.org/1999/xlink" width="632" height="334" viewBox="0 0 632 334">
    <defs>
        <linearGradient id="prefix__c" x1="50%" x2="50%" y1="27.102%" y2="110.845%">
            <stop offset="0%" stop-color="#FFF"/>
            <stop offset="100%" stop-color="#FFF" stop-opacity="0"/>
        </linearGradient>
        <linearGradient id="prefix__d" x1="50%" x2="50%" y1="27.102%" y2="110.845%">
            <stop offset="0%" stop-color="#FFF"/>
            <stop offset="100%" stop-color="#FFF" stop-opacity="0"/>
        </linearGradient>
        <path id="prefix__a" d="M0 0H632V335H0z"/>
    </defs>
    <g fill="none" fill-rule="evenodd" transform="translate(0 -1)">
        <mask id="prefix__b" fill="#fff">
            <use xlink:href="#prefix__a"/>
        </mask>
        <g mask="url(#prefix__b)">
            <g>
                <path fill-rule="nonzero" stroke="#0337CC" stroke-width=".55" d="M319.636 161.576l4.88.048c58.508.82 114.876 10.302 169.105 28.442 55.736 18.645 103.186 44.422 142.352 77.332 26.11 21.94 47.195 44.189 63.255 66.749-51.936 113.886-88.838 194.745-110.706 242.575-41.756 91.333-130.019 165.379-264.788 222.14l-4.098 1.714c-50.21-20.872-94.055-44.11-131.534-69.714l.005-124.771.119.12.004-272.064h137.975c80.591 0 132.784 41.02 133.82 111.01l.016 3.05c0 75.127-57.247 115.094-136.041 115.886l-2.394.012h-44.152l-1.002 104.49c12.592 6.542 25.96 12.796 40.1 18.763l3.084 1.291 2.715-1.136c89.273-37.599 147.74-86.649 175.4-147.149 27.94-61.111 38.418-129.412 31.433-204.903-25.944-21.8-57.376-38.875-94.297-51.226-34.64-11.587-70.596-17.84-107.871-18.76l-4.147-.08-3.233-.032-3.233.032c-38.756.543-76.096 6.823-112.018 18.84-24.614 8.234-55.503 25.31-92.667 51.226v330.842c-26.025-27.74-46.347-57.6-60.968-89.58C8.572 484.467-7.245 381.358 3.3 267.397c39.165-32.91 86.615-58.687 142.35-77.332 54.23-18.14 110.598-27.621 169.105-28.442l4.881-.048zm.741 247h-41.241v85h41.695c30.782 0 49.707-16.028 50.291-40.633l.014-2.097c0-27.143-18.453-41.815-49.303-42.26l-1.456-.01z" opacity=".762" transform="translate(-97.136 1.424)"/>
                <g>
                    <path fill="#FFF" fill-rule="nonzero" stroke="#0337CC" stroke-width=".514" d="M511.996 38.9l1.284.013c15.4.216 30.236 2.711 44.509 7.486 14.67 4.907 27.159 11.692 37.467 20.354 2.776 29.995-1.387 57.133-12.489 81.415-10.99 24.039-34.221 43.528-69.693 58.467l-1.078.452c-13.216-5.494-24.756-11.61-34.62-18.35v-32.84l.032.032.001-71.608h36.316c21.212 0 34.949 10.797 35.221 29.218l.005.803c0 19.774-15.068 30.293-35.807 30.502l-.63.003h-11.62l-.265 27.502c3.315 1.722 6.833 3.368 10.555 4.938l.812.34.714-.299c23.497-9.896 38.886-22.806 46.166-38.73 7.354-16.085 10.112-34.062 8.273-53.93-6.828-5.739-15.101-10.233-24.819-13.484-9.117-3.05-18.581-4.695-28.392-4.937l-1.091-.021-.851-.009-.851.009c-10.201.143-20.029 1.796-29.484 4.958-6.478 2.168-14.608 6.662-24.39 13.483v87.079c-6.85-7.302-12.199-15.161-16.047-23.578-11.101-24.282-15.264-51.42-12.489-81.415 10.309-8.662 22.798-15.447 37.467-20.354 14.274-4.775 29.11-7.27 44.51-7.486l1.284-.013zm-.415 65.215h-11.027v22.31h11.149c8.23 0 13.29-4.206 13.446-10.664l.004-.55c0-7.125-4.934-10.976-13.182-11.093l-.39-.003z" transform="translate(-97.136 1.424) translate(50)"/>
                    <path fill="url(#prefix__c)" d="M0 0H691.623V153.885H0z" transform="translate(-97.136 1.424) translate(50)"/>
                </g>
                <path fill="url(#prefix__d)" d="M31.136 137.576L421.134 137.61 421.136 255.576 31.138 255.542z" transform="translate(-97.136 1.424) rotate(-29 226.136 196.576)"/>
            </g>
        </g>
    </g>
</svg>
