<svg xmlns="http://www.w3.org/2000/svg" xmlns:xlink="http://www.w3.org/1999/xlink" width="1245" height="507" viewBox="0 0 1245 507">
    <defs>
        <linearGradient id="prefix__c" x1="50%" x2="50%" y1="27.102%" y2="110.845%">
            <stop offset="0%" stop-color="#FFF"/>
            <stop offset="100%" stop-color="#FFF" stop-opacity="0"/>
        </linearGradient>
        <linearGradient id="prefix__d" x1="50%" x2="50%" y1="27.102%" y2="110.845%">
            <stop offset="0%" stop-color="#FFF"/>
            <stop offset="100%" stop-color="#FFF" stop-opacity="0"/>
        </linearGradient>
        <path id="prefix__a" d="M0 0H1488V507H0z"/>
    </defs>
    <g fill="none" fill-rule="evenodd" transform="translate(-171)">
        <mask id="prefix__b" fill="#fff">
            <use xlink:href="#prefix__a"/>
        </mask>
        <g mask="url(#prefix__b)">
            <g>
                <path fill-rule="nonzero" stroke="#0337CC" stroke-width=".889" d="M1622.818 329.765l10.335.102c123.901 1.737 243.272 21.812 358.113 60.225 118.03 39.48 218.516 94.061 301.457 163.746 55.294 46.456 95.387 93.569 120.278 141.338-107.458 255.568-181.047 426.783-220.764 513.645-88.427 193.392-275.34 350.183-560.74 470.37l-8.68 3.631c-106.33-44.195-199.18-93.4-278.547-147.616l.008-264.2.253.254.008-576.084h292.19c170.668 0 281.197 86.858 283.39 235.06l.034 6.457c0 159.08-121.232 243.71-288.094 245.386l-5.07.026h-93.5l-2.123 221.251c26.667 13.854 54.975 27.097 84.922 39.731l6.53 2.735 5.749-2.406c189.054-79.614 312.87-183.475 371.446-311.582 59.168-129.402 81.356-274.026 66.564-433.875-54.942-46.16-121.506-82.316-199.692-108.468-73.356-24.537-149.502-37.778-228.439-39.725l-8.782-.17-6.846-.067-6.847.067c-82.074 1.151-161.148 14.45-237.22 39.895-52.124 17.434-117.537 53.59-196.24 108.468l-.001 700.546c-55.112-58.74-98.15-121.968-129.112-189.684-89.32-195.346-122.815-413.674-100.485-654.983 82.94-69.685 183.426-124.267 301.457-163.746 114.84-38.413 234.211-58.488 358.112-60.225l10.336-.102zm-.44 524.774h-88.664v180.147h89.64c66.178 0 106.866-33.969 108.121-86.116l.03-4.444c0-57.527-39.673-88.621-105.998-89.565l-3.128-.022z" opacity=".762" transform="translate(-968 -141)"/>
                <path fill="#FFF" d="M1939 373H2088V443H1939z" transform="translate(-968 -141)"/>
                <path fill="#FFF" fill-rule="nonzero" stroke="#0337CC" stroke-width=".889" d="M2048 180l2.246.022c26.918.378 52.853 4.74 77.803 13.086 25.644 8.579 47.476 20.438 65.496 35.58 4.851 52.433-2.426 99.873-21.832 142.318-19.212 42.022-59.821 76.09-121.827 102.205L2048 474c-23.102-9.603-43.274-20.295-60.518-32.075l.002-57.407.055.055.002-125.174h63.481c37.08 0 61.094 18.873 61.57 51.075l.007 1.403c0 34.565-26.339 52.954-62.591 53.319l-1.102.005h-20.314l-.46 48.075c5.793 3.01 11.943 5.888 18.45 8.633l1.418.594 1.249-.522c41.074-17.3 67.975-39.867 80.7-67.703 12.856-28.117 17.676-59.542 14.463-94.275-11.937-10.03-26.399-17.886-43.386-23.568-15.937-5.332-32.48-8.209-49.63-8.632l-1.909-.037-1.487-.014-1.487.014c-17.832.25-35.012 3.14-51.54 8.669-11.324 3.788-25.536 11.644-42.635 23.568v152.219c-11.974-12.763-21.324-26.502-28.05-41.216-19.407-42.445-26.684-89.885-21.833-142.318 18.02-15.142 39.852-27.001 65.495-35.58 24.95-8.346 50.886-12.708 77.804-13.086L2048 180zm-.724 114H2028v39h19.488c14.387 0 23.233-7.354 23.505-18.643l.007-.962c0-12.454-8.625-19.186-23.044-19.39l-.68-.005z" transform="translate(-968 -141)"/>
                <path fill="url(#prefix__c)" d="M1153 112H2362V381H1153z" transform="translate(-968 -141)"/>
                <path fill="url(#prefix__d)" d="M-28.373 411.731L2058.2 411.817 2058.212 712.394 -28.361 712.307z" transform="translate(-968 -141) rotate(-24 1014.92 562.062)"/>
            </g>
        </g>
    </g>
</svg>
